<?xml version="1.0" encoding="UTF-8"?>
<svg xmlns="http://www.w3.org/2000/svg" width="640" height="420" viewBox="0 0 640 420" role="img" aria-label="Chamadas MCP do Flow Engine num cliente como Claude Code ou Codex">
  <defs>
    <linearGradient id="chatbg" x1="0" y1="0" x2="640" y2="420" gradientUnits="userSpaceOnUse">
      <stop offset="0" stop-color="#1a1f23"/>
      <stop offset="1" stop-color="#0d1012"/>
    </linearGradient>
  </defs>

  <rect width="640" height="420" rx="12" fill="url(#chatbg)" stroke="#2a3035" stroke-width="1"/>

  <rect width="640" height="30" fill="#15191c"/>
  <rect y="16" width="640" height="14" fill="#15191c"/>
  <circle cx="20" cy="15" r="5.5" fill="#ff5f57"/>
  <circle cx="40" cy="15" r="5.5" fill="#febc2e"/>
  <circle cx="60" cy="15" r="5.5" fill="#28c840"/>
  <text x="320" y="19" text-anchor="middle" fill="#7a8089" font-family="DejaVu Sans Mono, IBM Plex Mono, monospace" font-size="11">flow-engine · MCP</text>

  <g font-family="DejaVu Sans Mono, IBM Plex Mono, monospace" font-size="12.5">

    <g transform="translate(20, 56)">
      <path d="M2 4 L8 4 L8 0 L12 0 L12 4 L18 4 L18 10 L12 10 L12 14 L8 14 L8 10 L2 10 Z" fill="#78cfc5" opacity="0.7"/>
      <text x="26" y="11" fill="#7a8089">MCP</text>
      <text x="58" y="11" fill="#f2efe8" font-weight="600">flow_map</text>
      <text x="138" y="11" fill="#7a8089">·</text>
      <text x="150" y="11" fill="#7a8089">server: flow-engine</text>
      <text x="0" y="30" fill="#7a8089">args:</text>
      <text x="42" y="30" fill="#d6a84f">{ project: "." }</text>
    </g>

    <g transform="translate(20, 120)">
      <path d="M2 4 L8 4 L8 0 L12 0 L12 4 L18 4 L18 10 L12 10 L12 14 L8 14 L8 10 L2 10 Z" fill="#78cfc5" opacity="0.7"/>
      <text x="26" y="11" fill="#7a8089">MCP</text>
      <text x="58" y="11" fill="#f2efe8" font-weight="600">flow_find</text>
      <text x="138" y="11" fill="#7a8089">·</text>
      <text x="150" y="11" fill="#7a8089">server: flow-engine</text>
      <text x="0" y="30" fill="#7a8089">args:</text>
      <text x="42" y="30" fill="#d6a84f">{ name: "PublicMenu" }</text>
    </g>

    <g transform="translate(20, 184)">
      <path d="M2 4 L8 4 L8 0 L12 0 L12 4 L18 4 L18 10 L12 10 L12 14 L8 14 L8 10 L2 10 Z" fill="#78cfc5" opacity="0.7"/>
      <text x="26" y="11" fill="#7a8089">MCP</text>
      <text x="58" y="11" fill="#f2efe8" font-weight="600">flow_lookup</text>
      <text x="158" y="11" fill="#7a8089">·</text>
      <text x="170" y="11" fill="#7a8089">server: flow-engine</text>
      <text x="0" y="30" fill="#7a8089">args:</text>
      <text x="42" y="30" fill="#d6a84f">{ node: "GetPublicMenuUseCase" }</text>
    </g>

    <g transform="translate(20, 248)">
      <path d="M2 4 L8 4 L8 0 L12 0 L12 4 L18 4 L18 10 L12 10 L12 14 L8 14 L8 10 L2 10 Z" fill="#78cfc5" opacity="0.7"/>
      <text x="26" y="11" fill="#7a8089">MCP</text>
      <text x="58" y="11" fill="#f2efe8" font-weight="600">flow_impact</text>
      <text x="158" y="11" fill="#7a8089">·</text>
      <text x="170" y="11" fill="#7a8089">server: flow-engine</text>
      <text x="0" y="30" fill="#7a8089">args:</text>
      <text x="42" y="30" fill="#d6a84f">{ node: "GetPublicMenuUseCase" }</text>
    </g>

    <line x1="20" y1="320" x2="620" y2="320" stroke="#2a3035" stroke-width="1"/>

    <text x="20" y="348" fill="#78cfc5" font-size="14">✓</text>
    <text x="40" y="348" fill="#f2efe8">plano pronto em</text>
    <text x="182" y="348" fill="#d6a84f">1m 51s</text>

    <text x="20" y="388" fill="#7a8089" font-size="11">contexto certo, alvo localizado, blast radius desenhado</text>
  </g>
</svg>
